<svg width="29" height="37" viewBox="0 0 29 37" fill="none" xmlns="http://www.w3.org/2000/svg">
<path d="M18.8616 6.30969V-0.0722656H3.82671C1.87864 -0.0722656 0.263672 1.5331 0.263672 3.48089V33.3746C0.263672 35.3227 1.87864 36.9277 3.82671 36.9277H25.2828C27.2306 36.9277 28.8456 35.3224 28.8456 33.3746V10.4012H22.9627C20.692 10.4012 18.8616 8.57082 18.8616 6.30969ZM8.251 18.2417L13.9871 12.085C14.1339 11.9283 14.3394 11.8403 14.5644 11.8403C14.7896 11.8403 14.9853 11.9283 15.1419 12.085L20.878 18.2417C21.1716 18.555 21.1521 19.0541 20.8388 19.348C20.692 19.4849 20.4961 19.5535 20.3103 19.5535C20.1045 19.5535 19.8894 19.4654 19.7328 19.3088L15.3378 14.6104V25.7983C15.3378 26.229 14.9855 26.5813 14.5548 26.5813C14.124 26.5813 13.7717 26.229 13.7717 25.7983V14.6104L9.39624 19.3088C9.10266 19.6218 8.6033 19.6416 8.29024 19.348C7.9769 19.0541 7.95742 18.5649 8.251 18.2417ZM23.3935 30.9568C23.3935 31.3876 23.0412 31.7399 22.6104 31.7399H6.49884C6.06807 31.7399 5.71578 31.3876 5.71578 30.9568C5.71578 30.526 6.06807 30.1737 6.49884 30.1737H22.6203C23.0511 30.1737 23.3935 30.5263 23.3935 30.9568Z" fill="white"/>
</svg>
